<?xml version="1.0"?>
<svg xmlns="http://www.w3.org/2000/svg" xmlns:xlink="http://www.w3.org/1999/xlink" xmlns:svgjs="http://svgjs.com/svgjs" version="1.1" width="512" height="512" x="0" y="0" viewBox="0 0 512 512" style="enable-background:new 0 0 512 512" xml:space="preserve" class=""><g>
<g xmlns="http://www.w3.org/2000/svg">
	<g>
		<path d="M438.144,75.027C388.976,25.944,325.844,0,255.577,0C186.042,0,123.872,25.687,75.781,74.292    C26.913,123.927,0,188.46,0,256c0,68.789,26.01,131.096,75.212,180.172C123.943,485.07,187.996,512,255.577,512    c68.287,0,133.394-27.153,183.321-76.453C486.721,388.474,512,326.387,512,256C512,185.838,486.46,123.258,438.144,75.027z     M400.596,397.186c-39.5,38.83-90.747,60.216-144.303,60.216c-53.292,0-103.763-21.101-142.111-59.415    c-38.843-38.821-60.233-89.247-60.233-141.985c0-52.884,21.4-103.795,60.257-143.353c37.861-38.457,86.995-58.784,142.089-58.784    c54.831,0,104.446,20.591,143.483,59.545c38.056,37.953,58.17,87.268,58.17,142.611    C457.946,311.462,438.116,360.277,400.596,397.186z" fill="#2196f3" data-original="#000000" style="" class=""/>
	</g>
</g>
<g xmlns="http://www.w3.org/2000/svg">
	<g>
		<path d="M258.023,293.586c-0.334-1.101-1.105-2.018-2.132-2.535l-31.41-15.803c-1.039-0.522-2.246-0.589-3.336-0.19    c-1.089,0.401-1.966,1.237-2.417,2.306c-5.657,13.409-13.759,19.13-27.087,19.13c-26.684,0-29.565-28.321-29.565-40.497    c0-26.859,9.948-40.477,29.565-40.477c2.63,0,16.164,0.865,24.148,17.935c0.485,1.037,1.373,1.831,2.458,2.197    c1.084,0.368,2.275,0.274,3.287-0.255l33.495-17.5c1-0.522,1.747-1.425,2.073-2.505c0.327-1.079,0.205-2.244-0.337-3.235    c-13.78-25.103-38.12-38.371-70.389-38.371c-45.899,0-77.953,33.805-77.953,82.21c0,50.018,31.128,82.338,79.3,82.338    c29.001,0,55.145-15.499,69.929-41.46C258.221,295.876,258.355,294.687,258.023,293.586z" fill="#2196f3" data-original="#000000" style="" class=""/>
	</g>
</g>
<g xmlns="http://www.w3.org/2000/svg">
	<g>
		<path d="M403.463,293.591c-0.329-1.103-1.1-2.021-2.129-2.542l-31.307-15.818c-1.039-0.525-2.253-0.594-3.346-0.191    c-1.094,0.405-1.971,1.246-2.419,2.322c-5.592,13.413-13.706,19.134-27.136,19.134c-26.78,0-29.672-28.321-29.672-40.497    c0-26.804,9.983-40.396,29.672-40.396c2.637,0,16.198,0.861,24.17,17.858c0.487,1.036,1.373,1.828,2.458,2.194    c1.086,0.366,2.271,0.274,3.283-0.255l33.488-17.479c1-0.522,1.747-1.424,2.075-2.501c0.326-1.079,0.206-2.243-0.332-3.231    c-13.923-25.482-37.643-38.405-70.497-38.405c-45.897,0-77.952,33.809-77.952,82.215c0,50.018,31.167,82.338,79.402,82.338    c28.867,0,54.984-15.498,69.864-41.455C403.656,295.884,403.793,294.692,403.463,293.591z" fill="#2196f3" data-original="#000000" style="" class=""/>
	</g>
</g>
<g xmlns="http://www.w3.org/2000/svg">
</g>
<g xmlns="http://www.w3.org/2000/svg">
</g>
<g xmlns="http://www.w3.org/2000/svg">
</g>
<g xmlns="http://www.w3.org/2000/svg">
</g>
<g xmlns="http://www.w3.org/2000/svg">
</g>
<g xmlns="http://www.w3.org/2000/svg">
</g>
<g xmlns="http://www.w3.org/2000/svg">
</g>
<g xmlns="http://www.w3.org/2000/svg">
</g>
<g xmlns="http://www.w3.org/2000/svg">
</g>
<g xmlns="http://www.w3.org/2000/svg">
</g>
<g xmlns="http://www.w3.org/2000/svg">
</g>
<g xmlns="http://www.w3.org/2000/svg">
</g>
<g xmlns="http://www.w3.org/2000/svg">
</g>
<g xmlns="http://www.w3.org/2000/svg">
</g>
<g xmlns="http://www.w3.org/2000/svg">
</g>
</g></svg>
